<svg xmlns="http://www.w3.org/2000/svg" version="1.1" xmlns:xlink="http://www.w3.org/1999/xlink" xmlns:svgjs="http://svgjs.com/svgjs" width="1440" height="560" preserveAspectRatio="none" viewBox="0 0 1440 560"><g mask="url(&quot;#SvgjsMask1257&quot;)" fill="none"><rect width="1440" height="560" x="0" y="0" fill="url(#SvgjsLinearGradient1258)"></rect><path d="M1140.03 87.29 a145.88 145.88 0 1 0 291.76 0 a145.88 145.88 0 1 0 -291.76 0z" fill="rgba(28, 94, 142, 0.4)" class="triangle-float2"></path><path d="M405.1071868726779 265.2802104737632L453.2470814359368 139.87149757150485 327.8383685336785 91.73160300824591 279.69847397041957 217.14031591050428z" fill="rgba(28, 94, 142, 0.4)" class="triangle-float2"></path><path d="M1305.1 428.13 a117.89 117.89 0 1 0 235.78 0 a117.89 117.89 0 1 0 -235.78 0z" fill="rgba(28, 94, 142, 0.4)" class="triangle-float3"></path><path d="M69.18622889015148 390.71781177095005L187.72633257884107 374.1732738821982 124.76017941865305 290.61436639361307z" fill="rgba(28, 94, 142, 0.4)" class="triangle-float1"></path><path d="M67.804,43.995C88.565,44.168,106.399,30.499,116.582,12.405C126.557,-5.32,127.501,-26.741,117.615,-44.516C107.447,-62.797,88.703,-74.373,67.804,-75.293C45.102,-76.292,20.65,-69.213,9.77,-49.263C-0.8,-29.882,8.748,-7.139,20.412,11.604C31.247,29.016,47.297,43.824,67.804,43.995" fill="rgba(28, 94, 142, 0.4)" class="triangle-float1"></path><path d="M395.31 371.24 a119.89 119.89 0 1 0 239.78 0 a119.89 119.89 0 1 0 -239.78 0z" fill="rgba(28, 94, 142, 0.4)" class="triangle-float2"></path></g><defs><mask id="SvgjsMask1257"><rect width="1440" height="560" fill="#ffffff"></rect></mask><linearGradient x1="84.72%" y1="-39.29%" x2="15.28%" y2="139.29%" gradientUnits="userSpaceOnUse" id="SvgjsLinearGradient1258"><stop stop-color="#0e2a47" offset="0"></stop><stop stop-color="rgba(26, 37, 52, 1)" offset="0.37"></stop><stop stop-color="rgba(26, 37, 52, 1)" offset="1"></stop></linearGradient><style>
            @keyframes float1 {
                0%{transform: translate(0, 0)}
                50%{transform: translate(-10px, 0)}
                100%{transform: translate(0, 0)}
            }

            .triangle-float1 {
                animation: float1 5s infinite;
            }

            @keyframes float2 {
                0%{transform: translate(0, 0)}
                50%{transform: translate(-5px, -5px)}
                100%{transform: translate(0, 0)}
            }

            .triangle-float2 {
                animation: float2 4s infinite;
            }

            @keyframes float3 {
                0%{transform: translate(0, 0)}
                50%{transform: translate(0, -10px)}
                100%{transform: translate(0, 0)}
            }

            .triangle-float3 {
                animation: float3 6s infinite;
            }
        </style></defs></svg>